<svg width="16" height="16" viewBox="0 0 16 16" fill="none" xmlns="http://www.w3.org/2000/svg">
<g clip-path="url(#clip0_1516_817)">
<path d="M15.3152 0.611107C15.1683 0.515789 15.0041 0.45034 14.8319 0.418498C14.6598 0.386657 14.483 0.389047 14.3118 0.425532C14.1405 0.462017 13.9781 0.531883 13.8339 0.631138C13.6897 0.730392 13.5664 0.857091 13.4712 1.004L6.00004 12.52L2.35649 9.15111C2.22794 9.03225 2.07723 8.93987 1.91298 8.87925C1.74873 8.81863 1.57415 8.79096 1.39921 8.79781C1.04589 8.81164 0.712537 8.96527 0.472486 9.22488C0.232436 9.4845 0.10535 9.82885 0.119186 10.1822C0.133022 10.5355 0.286647 10.8688 0.546264 11.1089L5.33026 15.532C5.33026 15.532 5.4676 15.6502 5.53115 15.6916C5.67803 15.7869 5.84227 15.8524 6.01449 15.8843C6.1867 15.9162 6.3635 15.9138 6.5348 15.8773C6.70609 15.8409 6.86851 15.771 7.01278 15.6717C7.15705 15.5724 7.28034 15.4456 7.3756 15.2987L15.708 2.45511C15.8034 2.30824 15.8688 2.14404 15.9007 1.97187C15.9325 1.79971 15.9301 1.62295 15.8936 1.45171C15.8571 1.28047 15.7873 1.1181 15.688 0.973862C15.5888 0.829629 15.4621 0.706363 15.3152 0.611107Z" fill="#004D39"/>
</g>
<defs>
<clipPath id="clip0_1516_817">
<rect width="16" height="16" fill="white"/>
</clipPath>
</defs>
</svg>
