<svg width="301" height="223" viewBox="0 0 301 223" fill="none" xmlns="http://www.w3.org/2000/svg">
<path d="M208.102 0.418869C205.48 0.99913 201.498 2.15965 201.299 2.41756C200.901 2.90111 199.375 3.64256 197.981 4.0294C196.123 4.5452 193.169 5.93138 192.24 6.7373C191.842 7.0919 190.714 7.89783 189.718 8.54257C185.803 11.0893 184.509 12.1853 182.153 14.7965C181.588 15.4413 180.991 15.9893 180.792 15.9893C180.626 15.9893 180.328 16.3439 180.128 16.7952C179.664 17.7623 179.432 18.0525 177.474 20.1156C176.677 20.9538 175.981 22.0176 175.848 22.5011C175.748 23.0169 175.483 23.4038 175.284 23.4038C174.885 23.4038 173.459 25.5637 172.961 26.9498C172.795 27.4012 172.098 28.465 171.434 29.3676C170.771 30.238 169.742 31.9466 169.145 33.1393C168.548 34.3321 167.917 35.3959 167.751 35.4926C167.585 35.6216 167.452 35.9762 167.452 36.3308C167.452 36.6532 167.353 36.9433 167.22 36.9433C166.888 36.9433 166.125 38.5229 166.125 39.1676C166.125 39.4578 165.661 40.5538 165.13 41.6176C164.599 42.6815 164.134 43.6808 164.134 43.8742C164.134 44.0354 163.769 44.9058 163.305 45.8084C162.873 46.6788 162.475 47.6782 162.475 47.9683C162.475 48.2584 162.342 48.5808 162.176 48.7098C161.977 48.8065 161.745 49.5479 161.612 50.3216C161.513 51.1275 161.28 51.869 161.114 51.9657C160.949 52.0624 160.816 52.6104 160.816 53.2229C160.816 53.8999 160.617 54.3512 160.285 54.4802C160.019 54.5769 159.82 54.9315 159.854 55.2216C159.887 55.544 159.854 56.0275 159.754 56.2854C159.389 57.2848 157.763 63.8933 157.597 64.9894C157.531 65.6019 157.332 66.4078 157.166 66.7624C157 67.117 156.701 68.7289 156.502 70.3407C156.336 71.9526 156.037 73.9513 155.872 74.7572C155.606 76.2078 155.639 77.8197 156.004 81.4947C156.17 83.1066 155.606 86.8138 154.909 88.5224C154.81 88.7803 154.677 89.3605 154.644 89.8118C154.611 90.2631 154.411 91.3914 154.212 92.3585C154.013 93.2934 153.814 94.7118 153.781 95.5178C153.748 96.2915 153.648 97.0007 153.516 97.0651C153.25 97.2263 153.316 98.5803 153.98 109.154C154.08 110.315 154.378 112.184 154.644 113.28C154.942 114.376 155.274 115.891 155.341 116.665C155.606 118.89 155.739 119.47 156.668 122.693C157.132 124.37 157.663 126.175 157.796 126.723C157.962 127.239 158.526 128.69 159.123 129.915C159.688 131.14 160.152 132.332 160.152 132.558C160.152 132.784 160.617 133.719 161.148 134.621C161.712 135.524 162.143 136.362 162.143 136.491C162.143 136.717 164.566 140.037 166.955 143.067C168.149 144.615 172.563 148.225 176.412 150.836C181.854 154.511 193.402 159.83 199.308 161.41C200.503 161.7 202.527 162.248 203.788 162.603C207.305 163.538 210.06 163.924 213.909 163.957C215.834 163.957 217.825 164.053 218.355 164.118C219.218 164.215 219.981 164.118 224.03 163.344C224.76 163.215 225.689 162.925 226.087 162.732C226.485 162.506 227.182 162.345 227.647 162.345C228.111 162.345 228.543 162.216 228.675 162.055C228.775 161.894 229.804 161.281 230.998 160.733C232.326 160.121 233.354 159.347 233.719 158.799C234.018 158.283 234.648 157.703 235.113 157.477C236.274 156.897 237.469 155.865 237.469 155.414C237.469 155.221 238 154.576 238.63 153.963C239.261 153.351 239.792 152.674 239.792 152.448C239.792 152.222 240.157 151.836 240.621 151.642C241.152 151.417 241.451 151.03 241.451 150.546C241.451 150.095 241.716 149.74 242.115 149.611C242.48 149.515 242.778 149.128 242.778 148.773C242.778 148.451 243.011 147.903 243.276 147.58C244.504 146.226 245.433 144.969 245.433 144.647C245.433 144.453 245.599 144.292 245.765 144.292C245.964 144.292 246.097 144.099 246.097 143.873C246.097 143.261 247.059 141.455 247.523 141.165C247.922 140.907 248.486 140.037 249.349 138.328C250.311 136.491 250.41 136.233 250.41 135.846C250.41 135.62 250.709 135.234 251.041 135.04C251.406 134.815 251.771 134.17 251.904 133.59C252.036 133.009 252.435 132.139 252.766 131.655C253.131 131.204 253.397 130.688 253.397 130.527C253.397 130.366 253.861 129.786 254.392 129.173C254.957 128.593 255.322 127.98 255.189 127.819C255.089 127.658 255.322 127.142 255.687 126.691C256.085 126.207 256.383 125.595 256.383 125.305C256.383 125.015 256.682 124.595 257.047 124.37C257.412 124.144 257.711 123.79 257.711 123.564C257.711 122.951 259.436 119.147 259.735 119.147C259.868 119.147 260.067 118.567 260.199 117.858C260.332 117.149 260.73 116.214 261.062 115.795C261.427 115.343 261.792 114.666 261.859 114.28C261.925 113.893 262.257 113.216 262.555 112.765C262.854 112.313 263.186 111.443 263.252 110.83C263.352 110.218 263.816 109.057 264.314 108.219C264.812 107.413 265.243 106.317 265.276 105.801C265.31 105.286 265.476 104.705 265.642 104.512C265.973 104.093 267.666 98.9671 267.666 98.3546C267.666 98.129 267.865 97.8711 268.064 97.8066C268.296 97.7099 268.661 96.8072 268.927 95.7434C269.424 93.5513 269.69 92.4875 270.652 89.1671C271.283 86.975 271.415 85.9434 271.78 80.9467C271.814 80.044 271.913 79.1736 271.946 79.0125C272.179 78.1743 271.946 65.4407 271.681 64.3447C271.515 63.6677 271.515 62.9262 271.681 62.7006C271.946 62.2493 271.814 60.992 271.249 59.2512C271.084 58.671 270.851 57.7361 270.785 57.1558C270.685 56.5756 270.32 54.8025 269.989 53.2229C269.657 51.6111 269.391 50.0959 269.424 49.8381C269.491 49.29 267.931 44.3255 266.936 41.94C265.907 39.5222 262.224 32.3012 260.432 29.2709C256.052 21.8564 246.528 13.2814 236.971 8.2202C224.992 1.8373 214.506 -0.999557 208.102 0.418869ZM233.819 16.8597C234.449 17.8913 235.113 19.084 235.279 19.5354C235.445 19.9867 235.843 20.7281 236.175 21.2117C236.54 21.663 236.805 22.1465 236.805 22.2755C236.805 22.4044 237.038 22.9525 237.303 23.5005C237.569 24.0808 238 25.3702 238.265 26.4018C238.531 27.4012 238.863 28.3683 238.962 28.5294C239.161 28.8518 239.46 30.2702 240.323 34.6867C241.053 38.5874 241.385 46.0019 240.953 49.8381C240.854 50.8052 240.721 52.6749 240.621 53.9644C240.555 55.2861 240.323 56.5433 240.124 56.769C239.792 57.1558 239.725 58.3164 239.858 60.5407C239.858 60.7664 239.626 61.8302 239.294 62.894C238.995 63.9578 238.697 65.6986 238.597 66.7624C238.531 67.794 238.332 69.1157 238.133 69.6638C237.967 70.1796 237.602 71.7269 237.303 73.0486C237.038 74.3703 236.673 75.7565 236.507 76.1111C235.909 77.4006 235.71 78.0776 235.611 79.1736C235.544 79.7861 235.279 80.8177 235.013 81.4302C233.786 84.2993 232.823 86.9105 232.823 87.4585C232.823 87.7809 232.591 88.3934 232.292 88.7803C232.027 89.1671 231.828 89.7474 231.861 90.0697C231.961 90.7467 231.562 91.6493 230.733 92.7454C230.401 93.1967 229.97 94.2283 229.804 95.002C229.605 95.7757 229.206 96.7105 228.875 97.0651C228.543 97.4197 228.078 98.4513 227.846 99.3862C227.647 100.289 227.116 101.514 226.651 102.094C226.22 102.674 225.855 103.384 225.855 103.674C225.855 103.964 225.689 104.351 225.523 104.512C225.324 104.705 225.125 105.157 225.025 105.543C224.959 105.93 224.66 106.511 224.362 106.768C224.063 107.059 223.897 107.478 223.997 107.703C224.063 107.929 223.864 108.38 223.499 108.703C223.167 108.993 222.868 109.509 222.868 109.799C222.868 110.089 222.503 110.669 222.039 111.088C221.574 111.507 221.209 112.088 221.209 112.41C221.209 112.732 221.076 113.055 220.911 113.151C220.745 113.248 220.048 114.441 219.384 115.763C218.687 117.116 217.99 118.277 217.825 118.374C217.692 118.47 217.559 118.793 217.559 119.147C217.559 119.47 217.327 119.792 217.061 119.921C216.796 120.018 216.564 120.437 216.564 120.856C216.564 121.275 216.199 122.017 215.734 122.5C215.269 122.984 214.971 123.532 215.104 123.693C215.203 123.886 215.004 124.338 214.639 124.724C213.743 125.692 211.254 129.624 211.254 130.076C211.254 130.269 211.122 130.43 210.989 130.43C210.69 130.43 208.931 132.88 208.931 133.267C208.931 133.396 208.434 133.912 207.803 134.428C207.173 134.911 206.575 135.717 206.443 136.169C206.343 136.62 205.879 137.426 205.414 137.942C204.983 138.457 204.618 138.973 204.618 139.134C204.618 139.295 204.186 139.489 203.655 139.618C203.124 139.715 202.428 140.166 202.162 140.585C201.465 141.617 198.28 143.647 197.351 143.647C196.952 143.647 196.554 143.873 196.455 144.131C196.322 144.389 195.857 144.615 195.326 144.615C194.829 144.615 194.231 144.808 194.032 145.066C193.833 145.292 192.672 145.614 191.477 145.743C189.42 145.936 189.287 145.936 188.59 145.066C188.192 144.582 187.561 143.68 187.196 143.035C186.831 142.39 185.969 141.036 185.272 140.037C184.608 139.038 184.044 138.103 184.044 137.974C184.044 137.845 183.613 136.813 183.049 135.685C182.518 134.589 182.053 133.525 182.053 133.332C182.053 133.17 181.555 132.074 180.925 130.946C180.294 129.818 179.863 128.786 179.963 128.722C180.029 128.625 179.83 128.013 179.465 127.303C179.1 126.626 178.702 125.627 178.602 125.047C178.469 124.499 178.171 123.854 177.938 123.693C177.673 123.499 177.308 122.629 177.109 121.791C176.346 118.89 175.947 117.697 175.649 117.278C175.45 117.052 175.416 116.794 175.516 116.665C175.649 116.568 175.549 116.182 175.35 115.795C175.118 115.44 174.952 114.957 174.919 114.795C174.919 114.602 174.653 113.667 174.355 112.7C172.928 108.251 171.965 101.868 171.567 94.4862C171.468 92.7132 171.368 91.198 171.335 91.1013C171.302 91.0046 171.766 90.0052 172.33 88.8447C174.255 84.9118 175.416 82.3651 175.416 81.946C175.416 81.7204 175.781 80.85 176.246 80.044C176.677 79.2381 177.208 77.9809 177.407 77.2394C177.607 76.5302 177.905 75.95 178.071 75.95C178.27 75.95 178.403 75.7888 178.403 75.5954C178.403 75.0151 180.56 70.4697 182.086 67.8907C182.252 67.6328 182.551 67.0848 182.717 66.6657C182.883 66.2466 183.414 65.1184 183.878 64.1512C184.343 63.1841 184.708 62.2493 184.708 62.0881C184.708 61.8947 184.84 61.7657 185.006 61.7657C185.172 61.7657 185.703 60.992 186.201 60.0572C186.666 59.1545 187.196 58.1552 187.396 57.8973C187.561 57.6394 187.86 57.0591 188.026 56.6078C188.225 56.1565 188.657 55.3506 188.988 54.8348C189.353 54.2868 189.652 53.642 189.652 53.3841C189.685 52.7071 190.88 50.5473 191.975 49.1933C192.473 48.5808 193.103 47.517 193.302 46.84C193.534 46.163 194.397 44.6157 195.227 43.4551C196.056 42.2624 196.952 40.8762 197.218 40.3282C197.516 39.8124 197.948 39.1999 198.18 38.942C198.446 38.7163 198.645 38.2972 198.645 38.0393C198.645 37.7814 198.777 37.588 198.91 37.588C199.076 37.588 199.441 37.04 199.773 36.3953C200.105 35.7183 200.636 35.0091 201.001 34.7512C201.332 34.5255 201.631 34.1709 201.631 33.9775C201.631 33.7841 202.162 33.0426 202.826 32.3012C203.489 31.592 204.551 30.3347 205.215 29.561C206.642 27.9169 210.159 24.5321 211.487 23.5327C214.772 21.1472 216.199 20.3413 220.214 18.665C220.844 18.3748 222.105 17.8268 222.968 17.4077C224.594 16.6018 230.301 15.0867 231.828 15.0544C232.492 15.0222 232.89 15.3768 233.819 16.8597Z" fill="#FFC34E"/>
<path d="M75.5355 23.3715C74.9051 23.5005 73.81 23.8551 73.1132 24.1452C72.3831 24.4676 70.9894 24.8867 69.9608 25.0801C68.8989 25.2735 67.8039 25.6603 67.5052 25.9182C67.1734 26.1761 66.9079 26.3051 66.9079 26.1761C66.9079 26.0472 66.0783 26.4018 65.116 26.9498C64.1205 27.4656 63.0587 27.9169 62.7932 27.9169C62.5277 27.9169 62.0964 28.1104 61.8641 28.336C61.1672 29.013 60.0722 29.5288 59.2758 29.5288C58.9108 29.5288 57.8489 30.109 56.9198 30.8183C55.9907 31.5275 54.8956 32.1077 54.4642 32.1077C54.066 32.1077 53.5351 32.3334 53.2696 32.6235C53.0374 32.8814 52.2741 33.4294 51.5441 33.7841C50.8141 34.1387 49.9181 34.6867 49.5531 35.0413C49.1549 35.3637 48.6904 35.6538 48.5244 35.686C48.3253 35.686 47.4958 36.2018 46.6662 36.8143C45.8366 37.3946 44.6088 38.2972 43.8788 38.7485C42.2196 39.8446 39.1668 42.2301 37.7067 43.5841C33.8243 47.2269 32.4306 48.4519 31.6342 48.8387C31.1365 49.0966 30.7383 49.419 30.7383 49.5157C30.7383 49.6446 29.7428 50.7407 28.515 51.9657C27.254 53.1907 26.0594 54.5769 25.794 55.0604C25.5617 55.5117 25.0639 55.9953 24.7321 56.0598C24.4003 56.1565 24.0021 56.4466 23.9025 56.7367C23.803 57.0269 23.2389 57.7361 22.6416 58.3486C20.9824 60.0572 19.1242 62.346 19.1242 62.6361C19.1242 62.7651 18.7923 63.2486 18.3609 63.6999C17.9296 64.1512 17.465 64.7315 17.2659 65.0216C17.1 65.3118 16.4695 66.1177 15.9054 66.7947C14.4785 68.4388 13.3171 70.0828 12.6202 71.3723C12.3216 71.9526 11.6248 72.8552 11.127 73.4032C10.5961 73.9513 10.1647 74.596 10.1647 74.8539C10.1647 75.1118 10.032 75.3052 9.83286 75.3052C9.66694 75.3052 9.43466 75.6921 9.30193 76.1756C9.00328 77.594 8.43917 78.5934 7.27776 79.9151C6.68046 80.5598 6.14953 81.3658 6.11634 81.6881C6.11634 81.9783 6.04998 82.3974 6.04998 82.5585C6.0168 82.752 5.58541 83.3967 5.08767 84.0414C4.58992 84.6862 4.19172 85.4599 4.19172 85.75C4.19172 86.0724 3.99262 86.7816 3.72716 87.3296C2.99713 88.9092 0.508388 98.5803 0.508388 99.7731C0.541571 100.16 0.442022 100.676 0.309289 100.869C0.209739 101.063 0.0438236 102.352 0.0106404 103.77C-0.188459 108.542 2.43301 117.31 5.65178 122.822C8.9701 128.464 17.1995 137.49 24.7653 143.809C31.5347 149.45 40.8259 155.511 46.3344 157.896C47.5289 158.412 49.4204 159.282 50.5486 159.798C52.7055 160.798 54.1324 161.12 59.1099 161.732C61.9968 162.119 65.8129 162.152 67.3393 161.829C67.7375 161.732 68.733 161.539 69.5626 161.41C74.2414 160.54 77.1283 159.637 80.9444 157.8C82.3713 157.09 83.7982 156.542 84.1632 156.542C84.5282 156.542 85.0591 156.252 85.3909 155.93C85.7228 155.575 86.4528 155.188 86.9837 155.059C87.5479 154.93 88.4438 154.544 88.9747 154.221C89.5388 153.899 90.3021 153.512 90.7334 153.319C91.1316 153.157 91.4635 152.867 91.4635 152.706C91.4635 152.545 91.8617 152.255 92.3926 152.061C92.8904 151.868 93.8858 151.352 94.6159 150.901C95.3459 150.45 96.5073 149.837 97.2042 149.547C97.8678 149.257 98.4319 148.902 98.4319 148.741C98.4319 148.612 98.5979 148.483 98.797 148.483C98.996 148.483 99.8256 148.064 100.589 147.548C102.248 146.452 103.841 145.743 105.168 145.453C105.666 145.324 106.064 145.034 106.064 144.776C106.064 144.518 106.296 144.292 106.562 144.292C106.827 144.292 107.06 144.163 107.06 144.002C107.06 143.841 107.59 143.615 108.221 143.519C108.851 143.39 109.382 143.164 109.382 143.003C109.382 142.809 109.615 142.68 109.88 142.68C110.146 142.68 110.909 142.326 111.572 141.874C112.236 141.423 112.999 141.069 113.232 141.069C113.464 141.069 113.829 140.811 113.995 140.456C114.194 140.134 114.99 139.682 115.853 139.489C116.683 139.296 117.346 138.973 117.346 138.812C117.346 138.619 117.645 138.49 117.977 138.49C118.342 138.49 118.74 138.328 118.84 138.167C118.939 137.974 119.337 137.845 119.702 137.845C120.067 137.845 120.432 137.651 120.532 137.394C120.631 137.168 121.395 136.62 122.257 136.201C123.12 135.782 124.282 135.105 124.846 134.718C125.41 134.299 126.04 133.976 126.239 133.976C126.671 133.976 131.283 129.56 131.283 129.141C131.283 128.947 131.449 128.819 131.615 128.819C131.814 128.819 131.947 128.657 131.947 128.432C131.947 128.238 132.146 127.819 132.412 127.561C133.042 126.852 137.986 118.019 138.683 116.278C139.247 114.957 139.247 114.828 138.716 114.28C138.219 113.732 137.09 113.313 134.768 112.797C133.805 112.603 123.651 110.798 120.333 110.25C115.057 109.412 102.281 109.476 101.352 110.379C101.12 110.605 100.423 110.766 99.7593 110.766C99.1288 110.766 98.2992 110.992 97.9674 111.249C97.6024 111.507 97.0382 111.733 96.7064 111.733C96.1091 111.733 95.8768 111.83 93.8527 112.797C93.2222 113.087 92.459 113.345 92.0939 113.345C91.7621 113.345 91.2976 113.635 91.0653 113.99C90.833 114.344 90.3684 114.634 90.0698 114.634C89.7379 114.634 89.4725 114.763 89.4725 114.957C89.4725 115.118 89.2402 115.279 88.9416 115.279C88.1783 115.279 85.4905 116.536 85.4905 116.891C85.4905 117.084 85.2914 117.213 85.0259 117.213C84.7937 117.213 84.3955 117.439 84.1632 117.697C83.6654 118.277 81.0108 119.47 80.1812 119.47C79.8825 119.47 79.2852 119.824 78.8539 120.244C78.4557 120.695 77.6593 121.146 77.1283 121.243C76.5974 121.372 76.0665 121.662 75.9669 121.92C75.8674 122.178 75.5024 122.371 75.1373 122.371C74.8055 122.371 74.1419 122.726 73.7105 123.145C72.9473 123.886 72.3168 124.273 69.3967 125.692C68.6666 126.046 68.003 126.433 67.9034 126.53C67.472 127.078 65.8461 127.851 65.1824 127.851C64.751 127.851 64.021 128.174 63.5896 128.593C63.125 129.012 62.03 129.624 61.1672 129.947C60.3045 130.269 59.6076 130.656 59.6076 130.817C59.6076 130.978 59.1762 131.269 58.6121 131.43C58.0812 131.623 57.6166 131.913 57.6166 132.074C57.6166 132.236 57.2516 132.365 56.7871 132.365C55.9907 132.365 54.6633 132.913 54.2983 133.396C54.1988 133.493 53.2365 133.976 52.1414 134.46C51.0464 134.911 49.8518 135.427 49.4868 135.588C47.2967 136.555 42.0205 137.619 39.5318 137.587C36.3462 137.587 35.1516 137.49 34.2225 137.2C33.6916 137.039 32.862 136.813 32.3974 136.717C31.4351 136.555 30.5392 134.815 29.3778 131.043C28.5814 128.464 28.4154 123.274 29.0459 122.081C29.245 121.726 29.3114 121.017 29.2118 120.501C29.0791 119.953 29.1787 119.47 29.3778 119.341C29.5769 119.212 29.7428 118.793 29.7428 118.406C29.7428 118.019 30.0746 116.826 30.4396 115.763C30.8046 114.699 31.1696 113.313 31.2692 112.7C31.3687 112.088 31.7338 111.282 32.0988 110.895C32.4306 110.54 32.7293 109.831 32.7293 109.283C32.7293 108.767 33.1606 107.607 33.6916 106.736C34.2225 105.834 35.2844 103.932 36.0476 102.481C36.8108 101.03 37.6404 99.6763 37.8726 99.4829C38.1381 99.2895 38.6359 98.5158 39.0341 97.7744C39.4323 97.0329 39.9632 96.2915 40.2286 96.1625C40.4941 96.0336 40.6932 95.6467 40.6932 95.3244C40.6932 95.002 41.0914 94.4217 41.556 93.9704C42.0205 93.5513 42.6178 92.7454 42.8833 92.2296C43.8456 90.3276 44.3765 89.4895 44.6752 89.4895C44.8411 89.4895 45.2061 88.9737 45.5048 88.3612C45.8366 87.7487 46.3344 87.1684 46.6994 87.0717C47.0312 86.9428 47.3298 86.5882 47.3298 86.2658C47.3298 85.9112 47.8608 85.2342 48.4913 84.7506C49.1217 84.2671 49.6527 83.6868 49.6527 83.4612C49.6527 83.2355 50.4823 82.2684 51.4777 81.2691C52.4732 80.2697 53.3028 79.2381 53.3028 78.9802C53.3028 78.7546 53.6015 78.4 53.9665 78.2066C54.8956 77.723 57.6166 75.1118 57.6166 74.6927C57.6166 74.4993 57.7162 74.3381 57.8821 74.3381C58.2471 74.3381 61.3663 71.6625 62.7932 70.1151C63.9214 68.8901 65.2488 67.8907 65.7797 67.8907C66.0452 67.8907 66.4102 67.5361 66.5761 67.117C66.742 66.698 67.3061 66.2144 67.8702 66.021C68.4343 65.8276 68.8989 65.5052 68.8989 65.344C68.8989 65.1506 69.1312 64.9894 69.3967 64.9894C69.6621 64.9894 70.0271 64.7315 70.1931 64.3769C70.3922 64.0545 71.0558 63.5387 71.7195 63.2486C72.35 62.9585 72.8809 62.5716 72.8809 62.4105C72.8809 62.2493 73.2459 62.0236 73.7105 61.8947C74.175 61.798 74.5401 61.4756 74.5401 61.2499C74.5401 60.992 74.9051 60.6374 75.3364 60.4762C75.7678 60.315 76.2324 60.0249 76.3651 59.8637C76.4647 59.6703 76.8297 59.5091 77.1615 59.5091C77.4934 59.5091 77.9579 59.2835 78.1902 59.0256C78.4225 58.7677 78.7875 58.542 79.0198 58.542C79.2852 58.542 80.5462 57.8006 81.8735 56.9302C83.3336 55.9308 84.6277 55.3183 85.1918 55.3183C85.7228 55.3183 86.2537 55.1249 86.3864 54.8992C86.7183 54.4157 91.2976 52.1913 92.6249 51.9012C93.189 51.7723 93.6867 51.5788 93.7863 51.4821C94.2509 50.9341 95.8437 50.1604 96.5405 50.1604C97.536 50.1604 99.5933 49.3545 100.887 48.4519C101.418 48.065 103.21 47.517 104.869 47.1624C111.373 45.8729 111.174 45.9696 110.909 44.6479C110.212 41.2308 100.722 31.8821 93.6867 27.6913C90.5343 25.8215 85.3909 24.0163 82.3381 23.7261C80.878 23.5972 79.0198 23.4037 78.1902 23.307C77.3606 23.2103 76.166 23.2426 75.5355 23.3715Z" fill="#FFC34E"/>
<path d="M292.055 151.552C290.23 151.875 288.306 152.326 287.742 152.552C285.319 153.551 283.892 154.292 283.229 155.002C282.83 155.421 282.299 155.775 282.034 155.775C281.802 155.775 281.603 155.904 281.603 156.098C281.603 156.42 280.939 157.29 279.877 158.386C278.152 160.159 276.625 164.125 276.625 166.865C276.625 169.895 278.616 173.506 280.242 173.506C280.574 173.506 281.835 172.925 283.03 172.216C287.177 169.798 291.889 168.541 298.493 168.154L301.612 167.961L301.114 168.638C300.119 169.992 297.796 172.216 296.9 172.7C296.369 172.957 295.871 173.377 295.772 173.667C295.639 173.925 295.374 174.15 295.141 174.15C294.909 174.15 294.312 174.505 293.814 174.956C293.316 175.408 292.819 175.762 292.686 175.762C292.586 175.762 292.055 176.117 291.491 176.568C290.96 177.019 290.263 177.374 289.965 177.374C289.666 177.374 289.036 177.664 288.571 178.019C288.107 178.373 287.576 178.663 287.377 178.663C287.211 178.663 286.348 179.083 285.485 179.631C284.091 180.469 279.578 182.822 278.284 183.338C278.019 183.435 277.09 183.918 276.26 184.402C275.397 184.885 273.771 185.756 272.61 186.368C271.449 186.948 270.055 187.754 269.491 188.173C268.96 188.56 268.13 189.011 267.666 189.14C267.201 189.269 266.04 189.946 265.044 190.623C264.049 191.333 263.053 191.881 262.788 191.881C262.555 191.881 262.356 192.01 262.356 192.138C262.356 192.429 259.669 193.815 259.104 193.815C258.872 193.815 258.474 194.169 258.175 194.621C257.744 195.265 257.711 195.685 258.009 196.974C258.872 200.939 261.726 206.548 265.21 211.094C268.097 214.898 269.789 215.929 275.132 217.154C276.227 217.412 278.019 217.864 279.114 218.154C280.209 218.444 281.47 218.766 281.934 218.831C282.399 218.895 283.063 219.089 283.428 219.25C283.793 219.411 284.987 219.701 286.082 219.927C287.177 220.12 288.737 220.475 289.567 220.733C292.055 221.442 294.146 221.861 295.34 221.861C295.971 221.861 296.9 222.022 297.431 222.216C298.659 222.667 306.789 222.667 309.477 222.183C313.359 221.506 314.786 219.83 314.354 216.316C313.857 212.48 307.651 206.323 301.811 203.969C300.65 203.486 299.389 203.035 299.024 202.97C296.402 202.487 292.553 201.294 292.553 200.971C292.553 200.778 293.814 200.165 298.792 197.973C299.721 197.554 300.517 197.103 300.517 196.974C300.517 196.813 300.816 196.716 301.148 196.716C301.513 196.716 301.911 196.587 302.01 196.394C302.11 196.233 302.84 195.781 303.603 195.427C306.291 194.137 306.789 193.783 309.377 191.3C312.463 188.367 313.16 187.561 313.757 186.175C313.989 185.627 314.454 184.917 314.819 184.595C315.151 184.305 315.45 183.66 315.45 183.177C315.45 182.693 315.615 181.855 315.815 181.307C316.379 179.759 315.582 173.925 314.421 170.894C312.164 164.931 307.884 158.096 304.4 154.905C302.276 152.938 299.19 151.391 296.966 151.133C296.037 151.036 293.98 151.23 292.055 151.552Z" fill="#FFC34E"/>
</svg>
