<svg width="307" height="351" viewBox="0 0 307 351" fill="none" xmlns="http://www.w3.org/2000/svg">
<path d="M129.59 0.0514526C129.406 0.125122 125.317 0.272491 120.564 0.383026C115.811 0.456726 109.843 0.825134 107.301 1.15671C104.759 1.45145 101.885 1.81985 100.853 1.93039C99.8587 2.04092 98.0903 2.3725 96.9113 2.66724C95.7692 2.96198 94.5903 3.10934 94.2955 2.96198C94.0008 2.85144 93.1534 3.03564 92.3797 3.33038C91.606 3.66199 90.6481 3.91986 90.206 3.91986C89.8008 3.91986 88.106 4.2883 86.485 4.69354C84.8639 5.09882 82.285 5.68829 80.7745 5.98303C79.2639 6.31461 77.8639 6.71988 77.6429 6.90408C77.4587 7.08829 76.9797 7.23566 76.5376 7.23566C76.0955 7.23566 75.6166 7.38303 75.4324 7.56723C75.0639 7.8988 72.8166 8.63565 69.0587 9.66724C67.9902 9.92514 66.7376 10.4041 66.2955 10.6988C65.8534 10.9936 64.8587 11.362 64.1218 11.4725C63.3481 11.6199 62.5745 11.9514 62.3166 12.2462C62.0955 12.5409 61.6166 12.762 61.285 12.762C60.9166 12.762 59.4797 13.3514 58.0429 14.0515C56.606 14.7514 55.206 15.3409 54.9481 15.3409C54.6903 15.3409 54.2113 15.562 53.9166 15.8199C53.585 16.0778 51.5218 17.1093 49.2745 18.1041C47.0639 19.0988 45.0745 20.1304 44.9271 20.3883C44.7797 20.6462 44.3376 20.8672 43.9692 20.8672C43.6008 20.8672 43.085 21.1251 42.8271 21.4199C42.5692 21.7146 42.1271 21.9725 41.8692 21.9725C41.5745 21.9725 41.3534 22.1199 41.3534 22.2672C41.3534 22.4514 40.3218 23.1146 39.0692 23.7778C36.0481 25.3251 34.206 26.4672 33.3218 27.2409C32.9534 27.5725 32.4376 27.8672 32.1797 27.8672C31.7745 27.8672 30.2271 28.7514 29.306 29.5251C29.0481 29.7094 28.606 30.1146 28.3113 30.3357C28.0166 30.5936 27.5745 30.8146 27.3903 30.8146C27.206 30.8146 26.8008 31.1462 26.506 31.5515C26.0271 32.2514 24.9955 32.9883 20.2797 36.1567C19.5429 36.6357 18.7323 37.3725 18.4376 37.7409C18.1797 38.1093 17.5534 38.662 17.0376 38.9199C16.5218 39.1778 15.7113 39.8041 15.1955 40.283C14.6797 40.762 13.8323 41.4988 13.3166 41.9778C6.83235 47.4672 -7.6466 62.0567 -7.6466 63.0515C-7.6466 63.3093 -8.01502 63.7883 -8.42028 64.1935C-9.3045 64.9672 -12.694 69.1672 -13.615 70.6409C-13.9466 71.1567 -14.7203 72.0778 -15.3466 72.6672C-15.9729 73.2567 -16.4887 73.883 -16.4887 74.1041C-16.4887 74.2883 -17.0045 75.0251 -17.594 75.7251C-18.2203 76.3883 -18.6992 77.1988 -18.6992 77.4567C-18.6992 77.7146 -19.215 78.5251 -19.8045 79.1883C-20.394 79.8883 -20.9098 80.6251 -20.9098 80.8093C-20.9098 81.0304 -21.2413 81.4725 -21.6466 81.8409C-22.015 82.1725 -22.5677 83.0935 -22.7887 83.8304C-23.0466 84.5672 -23.4519 85.3409 -23.7466 85.5251C-24.2992 85.9304 -24.9255 86.9988 -25.8466 88.9146C-26.1413 89.5778 -26.8045 90.683 -27.2834 91.3093C-27.7992 91.9725 -28.315 92.9304 -28.4624 93.4462C-28.6098 93.962 -29.0519 94.7725 -29.4203 95.2514C-29.8256 95.7304 -30.1203 96.4304 -30.1203 96.762C-30.1203 97.1304 -30.3782 97.4988 -30.6729 97.6462C-30.9677 97.7567 -31.2255 98.2357 -31.2624 98.6778C-31.2624 99.1567 -31.594 100.004 -31.9992 100.63C-32.3677 101.22 -32.8466 102.104 -33.0308 102.509C-33.215 102.951 -33.9519 104.536 -34.615 106.009C-35.315 107.52 -36.2729 109.657 -36.7519 110.762C-37.194 111.867 -37.894 113.451 -38.2255 114.262C-38.594 115.072 -38.9992 116.399 -39.1098 117.209C-39.2571 117.983 -39.6992 119.088 -40.0308 119.604C-40.3992 120.12 -40.915 121.594 -41.1729 122.92C-41.4308 124.246 -41.7624 125.462 -41.9098 125.683C-42.0203 125.867 -42.4255 127.378 -42.794 128.999C-43.1624 130.62 -43.6782 132.72 -43.9729 133.678C-44.3045 134.599 -44.5992 135.925 -44.6361 136.625C-44.8203 138.541 -45.6677 142.225 -46.0361 142.594C-46.1834 142.815 -46.3308 143.478 -46.3308 144.067C-46.3308 144.694 -46.5887 146.536 -46.8834 148.157C-47.215 149.778 -47.5098 151.841 -47.5834 152.762C-47.6571 153.683 -47.9887 156.962 -48.3203 160.094C-48.615 163.225 -48.7992 165.915 -48.6887 166.062C-48.5782 166.246 -48.615 166.578 -48.7624 166.836C-49.2413 167.609 -48.9466 187.025 -48.3203 193.288C-48.2466 194.394 -48.0624 196.125 -47.9887 197.157C-47.8782 198.151 -47.6571 199.994 -47.4729 201.209C-47.2887 202.425 -46.9571 204.82 -46.7361 206.551C-46.515 208.283 -46.0729 210.457 -45.7413 211.415C-45.4466 212.372 -45.115 213.699 -45.0045 214.362C-44.7466 216.536 -43.7887 220.92 -43.3834 221.657C-43.1624 222.062 -43.015 222.615 -43.0887 222.873C-43.1255 223.094 -43.015 223.794 -42.794 224.42C-42.5729 225.009 -42.094 226.778 -41.7255 228.288C-41.3571 229.799 -40.915 231.236 -40.7677 231.457C-40.5834 231.715 -40.1782 232.857 -39.8834 234.036C-39.5887 235.251 -39.1098 236.688 -38.8519 237.315C-38.5571 237.904 -38.0045 239.23 -37.5624 240.262C-36.1992 243.651 -33.0308 250.946 -32.1834 252.604C-30.0098 256.915 -27.0992 262.22 -25.7361 264.394C-24.8887 265.72 -23.7834 267.599 -23.3045 268.63C-22.7887 269.625 -21.794 271.209 -21.1308 272.13C-20.4308 273.051 -19.8413 273.973 -19.8413 274.23C-19.8045 274.451 -19.3624 275.188 -18.8466 275.815C-17.5571 277.325 -16.5255 278.762 -14.315 282.004C-13.3571 283.441 -11.4045 285.909 -10.0045 287.457C-5.36239 292.615 6.13235 303.815 9.30077 306.283C11.0323 307.609 13.0218 309.267 13.7218 309.894C18.7692 314.572 32.7692 323.672 43.0113 328.941C55.9429 335.609 71.6376 341.467 84.2745 344.304C87.1113 344.967 91.2745 345.925 93.485 346.441C110.617 350.42 139.39 351.857 153.906 349.499C155.122 349.278 157.774 348.946 159.801 348.762C163.706 348.394 168.053 347.657 171.627 346.772C178.885 344.967 181.317 344.341 182.532 343.825C183.306 343.494 184.338 343.236 184.89 343.236C185.406 343.236 186.364 343.015 186.99 342.72C187.653 342.425 189.68 341.725 191.485 341.099C193.327 340.509 196.053 339.478 197.564 338.815C199.074 338.151 201.248 337.341 202.353 336.972C206.332 335.646 207.732 335.057 211.564 333.251C213.701 332.22 215.727 331.225 216.096 331.041C216.427 330.857 217.017 330.562 217.385 330.415C217.717 330.23 218.601 329.788 219.301 329.42C220.001 329.051 221.438 328.351 222.432 327.836C223.464 327.32 224.532 326.694 224.827 326.436C225.122 326.215 226.853 325.22 228.696 324.299C230.501 323.341 232.122 322.383 232.232 322.162C232.49 321.757 233.338 321.241 235.806 319.988C236.653 319.546 237.574 318.92 237.832 318.588C238.459 317.741 241.259 315.604 241.738 315.604C241.959 315.604 242.143 315.457 242.143 315.309C242.143 315.015 245.643 312.288 246.048 312.288C246.159 312.288 246.711 311.809 247.301 311.257C247.853 310.667 249.364 309.304 250.617 308.199C254.117 305.178 265.722 293.388 265.722 292.909C265.722 292.762 267.49 290.736 268.964 289.225C269.185 288.967 269.406 288.636 269.406 288.488C269.406 288.341 269.774 287.862 270.253 287.42C270.696 286.941 271.285 286.351 271.506 286.057C271.764 285.799 272.317 285.246 272.722 284.878C273.09 284.509 273.348 284.067 273.274 283.92C273.201 283.772 273.532 283.257 274.011 282.815C274.527 282.336 274.932 281.783 274.932 281.525C274.932 281.304 275.448 280.604 276.038 279.941C276.664 279.278 277.143 278.615 277.143 278.467C277.18 278.32 277.659 277.62 278.248 276.92C278.874 276.22 279.353 275.372 279.353 275.041C279.353 274.673 279.464 274.341 279.648 274.267C280.09 274.083 281.822 271.615 282.08 270.73C282.227 270.288 282.522 269.92 282.706 269.92C282.927 269.92 283.332 269.33 283.627 268.63C283.922 267.93 284.327 267.341 284.511 267.341C284.732 267.341 284.88 267.009 284.88 266.604C284.88 266.199 285.211 265.536 285.617 265.13C286.022 264.725 286.353 264.173 286.353 263.878C286.353 263.583 286.501 263.251 286.685 263.104C287.053 262.883 288.196 260.636 288.932 258.573C289.19 257.946 289.522 257.394 289.706 257.394C289.89 257.394 290.038 257.099 290.074 256.73C290.074 256.399 290.406 255.588 290.774 254.999C291.99 253.083 292.617 251.757 292.617 251.241C292.617 250.946 293.022 249.804 293.538 248.699C294.053 247.594 294.459 246.525 294.459 246.341C294.459 246.12 294.606 245.678 294.79 245.309C295.38 244.241 297.332 238.936 298.18 236.025C298.622 234.515 299.138 233.115 299.322 232.894C299.469 232.709 299.617 232.157 299.617 231.678C299.617 231.199 299.838 230.462 300.059 230.02C300.317 229.578 300.538 228.951 300.538 228.657C300.574 227.404 301.164 224.973 301.496 224.751C301.68 224.641 301.827 224.162 301.827 223.683C301.827 223.204 301.974 222.725 302.159 222.615C302.343 222.504 302.601 221.362 302.748 220.109C302.896 218.82 303.338 216.057 303.743 213.92C304.185 211.783 304.553 209.462 304.627 208.762C304.664 208.062 304.885 206.073 305.106 204.341C305.327 202.609 305.659 200.067 305.806 198.667C306.138 195.904 306.064 176.636 305.732 170.63C305.585 168.604 305.327 166.025 305.143 164.92C304.959 163.815 304.701 162.304 304.627 161.604C304.517 160.904 304.148 158.583 303.817 156.446C303.485 154.309 303.19 152.062 303.117 151.472C303.043 150.846 302.711 149.372 302.417 148.157C299.432 136.662 298.29 132.757 296.706 128.63C295.674 125.978 294.827 123.62 294.827 123.362C294.827 121.741 290.443 112.236 284.585 101.183C277.769 88.2146 267.859 74.3251 257.432 63.0883C247.78 52.662 240.301 45.4778 234.406 40.9462C233.08 39.9514 231.532 38.6988 230.98 38.183C227.811 35.4199 214.032 25.8041 210.938 24.2567C210.09 23.8146 208.69 22.9672 207.806 22.4146C206.111 21.2725 195.574 15.8567 191.632 14.0883C187.174 12.0988 181.28 9.81461 180.617 9.81461C180.248 9.81461 178.885 9.33566 177.596 8.70935C176.343 8.11987 174.943 7.60406 174.538 7.60406C174.132 7.60406 172.548 7.19882 171.038 6.71988C169.527 6.24094 167.538 5.65146 166.617 5.43039C165.696 5.17249 164.48 4.84091 163.853 4.65671C163.264 4.4725 161.68 4.14093 160.353 3.88303C159.027 3.66199 157.111 3.21988 156.043 2.96198C155.011 2.66724 153.574 2.4462 152.838 2.4462C152.101 2.4462 150.811 2.29883 149.964 2.07776C146.98 1.41461 143.59 0.861969 141.932 0.7883C138.58 0.604065 133.238 0.235657 131.617 0.0882874C130.696 -0.0222473 129.811 -0.0222473 129.59 0.0514526ZM153.538 22.8199C153.943 22.9304 156.08 23.1146 158.327 23.262C160.538 23.3725 163.448 23.7041 164.774 23.9988C166.101 24.2935 168.422 24.6988 169.932 24.883C173.101 25.3251 177.632 26.1725 179.511 26.7251C180.211 26.9462 182.127 27.462 183.748 27.8672C185.369 28.2725 187.764 28.9357 189.09 29.3409C190.417 29.7094 192.074 30.1883 192.774 30.3725C194.027 30.7409 196.385 31.662 199.664 33.0988C200.548 33.4672 201.469 33.762 201.764 33.762C202.022 33.762 202.759 34.0199 203.311 34.3146C203.901 34.6093 204.638 34.8672 204.932 34.8672C205.227 34.8672 207.327 35.8251 209.538 36.9672C211.785 38.1093 214.843 39.6567 216.39 40.4304C217.938 41.2041 220.701 42.7883 222.543 43.9672C224.385 45.1462 226.78 46.6199 227.848 47.283C232.969 50.3041 248.811 64.3409 248.738 65.7778C248.738 66.1093 248.332 67.0304 247.853 67.8409C247.374 68.6515 246.785 69.683 246.564 70.162C246.048 71.3777 244.022 74.2514 242.917 75.4304C242.401 75.983 241.48 77.0515 240.853 77.7883C237.059 82.5409 234.664 84.3462 229.248 86.5567C228.548 86.8514 227.074 87.4409 226.043 87.883C224.974 88.2883 223.206 89.0251 222.174 89.4304C221.106 89.8725 219.89 90.3514 219.485 90.5356C219.08 90.683 217.348 91.383 215.617 92.0093C213.885 92.6725 212.338 93.3357 212.153 93.5199C211.932 93.6672 211.453 93.8146 211.011 93.8146C210.569 93.8146 210.09 93.962 209.869 94.1462C209.685 94.3304 208.543 94.8093 207.327 95.2514C206.111 95.6936 204.785 96.2093 204.38 96.3936C203.164 96.9462 195.611 98.9725 194.432 99.0462C193.806 99.083 193.18 99.2304 192.959 99.3409C192.774 99.4883 191.043 100.078 189.201 100.667C187.322 101.257 185.774 101.846 185.774 101.994C185.774 102.178 185.553 102.288 185.296 102.288C185.038 102.288 183.969 102.878 182.938 103.578C181.869 104.278 180.874 104.867 180.727 104.867C180.248 104.867 178.111 106.673 175.459 109.325C172.18 112.641 171.738 113.194 170.522 115.736C169.969 116.951 169.343 118.204 169.159 118.499C168.974 118.794 168.532 119.641 168.164 120.341C167.796 121.041 167.317 121.962 167.096 122.367C165.88 124.725 164.038 128.667 164.038 128.925C164.038 129.22 162.711 131.209 161.938 132.02C161.717 132.278 161.385 132.83 161.274 133.236C161.164 133.641 160.869 133.973 160.685 133.973C160.501 133.973 160.353 134.157 160.353 134.341C160.353 134.709 158.843 136.257 154.864 139.978C153.832 140.973 152.985 141.93 152.985 142.115C152.985 142.299 152.653 142.594 152.285 142.741C151.438 143.072 149.632 144.509 146.611 147.309C145.359 148.488 144.217 149.446 144.106 149.446C143.774 149.446 142.264 150.699 140.643 152.283C139.98 152.946 139.317 153.499 139.169 153.499C139.059 153.499 138.322 153.978 137.585 154.567C136.848 155.157 135.301 156.115 134.159 156.741C133.017 157.33 131.506 158.251 130.806 158.804C130.106 159.32 129.369 159.762 129.185 159.762C129.001 159.762 128.374 160.02 127.748 160.351C127.159 160.646 125.574 161.309 124.248 161.825C122.922 162.341 121.264 162.967 120.564 163.262C119.864 163.52 118.464 163.925 117.432 164.183C116.438 164.404 115.001 164.736 114.301 164.92C113.601 165.104 112.532 165.325 111.906 165.436C111.317 165.509 110.138 165.767 109.327 165.988C108.517 166.173 106.896 166.43 105.68 166.541C104.501 166.651 102.953 166.909 102.29 167.13C101.59 167.388 100.817 167.499 100.559 167.388C100.338 167.315 99.4902 167.462 98.7166 167.72C97.9429 168.015 97.206 168.199 97.0587 168.162C96.506 168.015 93.0797 168.715 92.6745 169.046C92.4166 169.23 92.0481 169.304 91.8639 169.194C91.6429 169.046 90.906 169.194 90.206 169.488C89.4692 169.783 87.5903 170.372 86.0429 170.815C84.4587 171.257 82.8376 171.736 82.4324 171.92C81.1797 172.546 76.3903 173.394 74.4008 173.394H72.485L72.5218 169.599C72.5955 161.162 71.7481 157.551 68.5797 152.762C66.6639 149.888 61.2113 144.436 57.5639 141.746C53.5113 138.799 54.0271 139.241 48.906 133.751C43.8218 128.299 41.3903 126.125 36.7481 122.92C31.7008 119.457 28.9745 117.983 24.406 116.104C19.9113 114.262 18.2902 113.857 13.1692 113.341C7.49551 112.751 4.80603 112.272 1.74814 111.241C0.127083 110.725 -1.30976 110.209 -1.45713 110.136C-1.7887 109.951 -0.830811 107.52 -0.0939674 106.709C0.200768 106.378 0.458664 105.899 0.458664 105.641C0.458664 105.236 0.753399 104.794 1.93235 103.467C2.26393 103.136 2.89024 102.03 3.36919 101.072C3.84814 100.078 4.43761 99.1936 4.73235 99.083C5.02708 98.9725 5.24814 98.6778 5.24814 98.4199C5.24814 98.162 5.83761 97.0936 6.53761 96.0251C7.23761 94.9567 7.82708 93.9988 7.82708 93.8514C7.82708 93.6672 8.15866 93.262 8.56393 92.8936C8.96919 92.5251 9.37445 91.9357 9.52182 91.5304C9.63235 91.1251 10.2955 90.2409 10.9955 89.5041C11.6955 88.8041 12.2481 88.0672 12.2481 87.9199C12.2481 87.7357 12.9113 86.9251 13.7218 86.1146C14.5323 85.3041 15.1955 84.4936 15.1955 84.2725C15.1955 84.0515 15.5271 83.7199 15.9324 83.4988C16.3376 83.2778 16.6692 82.9093 16.6692 82.6883C16.6692 82.4672 17.2587 81.7672 17.9587 81.0672C18.6587 80.4041 19.2481 79.6672 19.2481 79.4462C19.2481 79.2251 20.4639 77.8251 21.9376 76.3514C23.3745 74.8409 25.585 72.5567 26.8376 71.3041C28.0902 70.0146 29.8218 68.283 30.706 67.4725C31.6271 66.662 33.8008 64.6357 35.5324 62.9778C37.3008 61.3199 39.3271 59.6988 40.0639 59.3304C40.7639 58.9988 41.5376 58.4462 41.7218 58.1146C41.8692 57.783 42.8639 56.9357 43.8955 56.2357C44.9271 55.5356 45.7745 54.8357 45.7745 54.6515C45.7745 54.5041 45.9955 54.3936 46.2534 54.3936C46.5113 54.3936 47.1376 53.9883 47.6534 53.5093C48.8324 52.4041 52.6639 49.7883 53.9902 49.1988C54.5429 48.9409 54.985 48.6462 54.985 48.5356C54.985 48.3883 55.6113 47.983 56.385 47.5778C57.1218 47.1725 57.8218 46.7672 57.9324 46.6199C58.1534 46.362 61.985 44.2251 64.2324 43.083C65.1534 42.6409 66.1481 42.0146 66.406 41.683C66.6639 41.3883 67.1429 41.1304 67.5113 41.1304C67.8797 41.1304 68.3587 40.9093 68.5797 40.6515C68.9481 40.1725 69.5745 39.8778 73.7745 38.0725C75.5797 37.3357 77.6797 36.3778 80.1481 35.2357C81.0324 34.8304 81.9166 34.4988 82.1376 34.4988C82.3587 34.4988 83.0218 34.2409 83.6113 33.9462C84.1639 33.6515 85.6376 33.062 86.8534 32.583C88.0692 32.1409 89.2113 31.6251 89.4324 31.4778C89.6166 31.3304 90.0955 31.183 90.5376 31.183C90.9429 31.1462 92.6745 30.6672 94.406 30.0778C96.1376 29.4514 97.906 28.9725 98.385 28.9725C98.8639 28.9725 99.6745 28.7514 100.227 28.4567C101.222 27.9409 103.064 27.4988 107.301 26.7251C109.548 26.283 111.796 25.7304 113.196 25.2514C114.043 24.9199 116.99 24.5515 123.548 23.8146C125.096 23.6672 126.68 23.4462 127.048 23.2988C127.453 23.1883 129.627 23.0041 131.948 22.9304C134.232 22.8199 136.185 22.7094 136.222 22.6357C136.443 22.4146 152.801 22.5988 153.538 22.8199ZM265.906 91.5672C267.601 94.9199 269.406 98.7514 269.959 100.078C270.511 101.404 271.285 103.209 271.653 104.094C272.28 105.494 273.974 110.467 275.817 116.288C276.111 117.209 276.553 118.867 276.774 119.973C276.996 121.078 277.438 122.809 277.696 123.841C279.022 128.63 279.427 130.509 279.574 132.241C279.648 133.309 279.869 134.894 280.053 135.815C280.901 139.978 281.674 145.946 281.896 150.183C282.559 162.194 281.564 182.015 280.053 187.541C279.832 188.388 279.574 189.936 279.501 191.004C279.427 192.072 279.28 193.141 279.132 193.362C278.801 193.915 277.88 198.778 277.88 200.067C277.88 200.657 277.585 202.094 277.18 203.199C276.148 206.33 275.301 209.315 275.301 209.904C275.264 210.199 274.969 211.083 274.564 211.894C274.159 212.704 273.864 213.662 273.827 213.994C273.827 214.325 273.68 214.73 273.459 214.841C273.274 214.951 273.09 215.394 273.09 215.799C273.09 217.309 270.659 223.867 270.106 223.867C269.922 223.867 268.853 223.278 267.711 222.541C266.569 221.804 264.58 220.699 263.253 220.109C261.19 219.115 260.674 219.041 258.906 219.262C256.917 219.483 254.89 220.257 254.485 220.957C254.338 221.141 254.043 221.288 253.748 221.288C253.453 221.288 252.606 221.694 251.869 222.209C251.096 222.725 250.064 223.241 249.548 223.351C249.032 223.462 248.148 223.794 247.596 224.088C247.043 224.383 245.385 224.862 243.911 225.157C238.348 226.225 237.169 226.52 236.838 226.851C236.101 227.551 235.143 227.109 233.006 225.009C230.096 222.173 222.064 215.983 218.527 213.846C211.232 209.425 205.632 207.104 197.38 205.004C195.759 204.599 193.18 203.936 191.669 203.494C189.532 202.904 187.838 202.72 184.227 202.683C179.806 202.683 179.511 202.72 178.627 203.567C177.338 204.783 177.08 206.551 177.817 208.836C178.48 210.899 178.59 214.104 178.038 214.473C177.853 214.583 177.669 215.025 177.669 215.394C177.669 216.167 176.711 217.936 175.385 219.557C173.801 221.473 170.006 225.341 169.711 225.341C169.527 225.341 168.974 226.004 168.459 226.815C167.98 227.625 167.39 228.288 167.132 228.288C166.911 228.288 166.138 229.025 165.474 229.946C164.774 230.83 164.001 231.604 163.743 231.604C163.485 231.604 163.08 232.009 162.859 232.525C162.638 233.041 162.343 233.446 162.196 233.446C161.827 233.446 159.617 236.983 159.617 237.573C159.617 237.83 159.285 238.346 158.88 238.715C158.474 239.046 158.143 239.709 158.143 240.151C158.143 240.63 157.811 241.404 157.406 241.92C157.001 242.436 156.669 243.357 156.669 244.02C156.669 244.646 156.338 245.973 155.932 246.93C154.053 251.241 153.906 259.678 155.527 265.388C156.559 268.888 158.585 273.346 160.28 275.704C160.722 276.33 161.09 276.994 161.09 277.141C161.09 277.288 161.311 277.694 161.606 277.988C161.864 278.32 162.711 279.72 163.485 281.157C164.222 282.557 165.069 283.994 165.29 284.288C165.548 284.583 165.953 285.32 166.211 285.946C166.469 286.536 166.838 287.309 167.022 287.604C168.09 289.483 169.196 291.767 169.196 292.136C169.196 292.357 169.417 292.799 169.711 293.094C170.338 293.794 172.806 299.983 173.432 302.341C174.096 304.883 174.096 310.078 173.432 315.567C173.138 318.257 172.769 320.651 172.659 320.836C172.548 321.02 172.18 322.862 171.811 324.925L171.185 328.646L169.343 329.199C168.348 329.457 166.359 330.194 164.885 330.746C163.448 331.336 161.938 331.815 161.569 331.815C161.201 331.815 160.464 332.036 159.948 332.33C159.432 332.588 158.106 333.03 157.001 333.288C155.896 333.546 154.68 333.915 154.274 334.136C153.501 334.541 148.896 335.609 145.174 336.272C143.996 336.457 142.632 336.788 142.153 336.972C141.674 337.157 139.538 337.488 137.474 337.709C135.374 337.93 133.569 338.188 133.459 338.262C132.574 338.815 125.464 339.33 113.564 339.736C102.953 340.067 87.5534 337.562 75.8008 333.509C67.806 330.783 61.7271 328.057 53.6955 323.525C47.506 320.025 38.9587 314.425 37.6692 313.025C37.5587 312.915 36.8955 312.399 36.1955 311.92C35.4955 311.441 33.6534 309.967 32.1429 308.641C30.6324 307.315 29.306 306.209 29.2692 306.173C29.1218 306.099 29.8218 305.104 32.3639 301.604C34.5376 298.657 38.9955 293.867 39.585 293.867C39.7692 293.867 39.8797 293.683 39.8797 293.462C39.8797 293.241 40.8745 292.062 42.0902 290.846C43.306 289.594 44.3008 288.525 44.3008 288.415C44.3008 288.009 47.8745 284.583 48.6481 284.251C49.0902 284.067 49.4587 283.699 49.4587 283.367C49.4587 283.073 49.6797 282.815 49.9376 282.815C50.2324 282.815 50.8955 282.446 51.4113 281.967C51.9639 281.525 52.9955 280.825 53.7692 280.42C54.5429 280.015 55.685 279.351 56.2745 278.909C56.9008 278.467 58.485 277.62 59.8113 276.994C62.9797 275.483 63.9745 274.673 64.8587 272.757C65.8903 270.546 66.1113 269.294 65.706 267.967C65.5218 267.304 65.1903 266.051 64.9324 265.13C64.7113 264.209 64.3429 262.809 64.1587 261.999C63.2008 258.315 61.1745 255.146 56.8271 250.651C54.506 248.22 51.4481 245.272 50.0113 244.13C43.5271 238.788 42.0166 236.651 41.0218 231.53C40.6534 229.651 40.4692 227.92 40.6534 227.736C40.8008 227.515 40.8008 227.109 40.6166 226.815C40.4324 226.557 40.285 223.573 40.2481 220.257C40.2481 216.462 40.0271 213.183 39.6955 211.562C39.0692 208.615 36.4534 201.946 35.4955 200.841C35.1271 200.436 34.5745 199.588 34.2797 198.999C32.8429 196.199 29.9324 190.673 28.8271 188.683C28.1271 187.467 27.3166 185.957 26.985 185.367C24.8113 181.351 21.4587 177.041 18.7692 174.83C15.8955 172.399 11.3639 169.451 7.86393 167.683C3.36919 165.436 -9.12029 161.051 -15.8624 159.357L-19.0677 158.583L-18.8834 156.778C-18.6992 154.972 -18.0729 151.951 -17.6677 150.92C-17.5571 150.625 -17.2624 149.446 -17.0045 148.341C-16.3045 145.173 -16.194 144.804 -15.8256 144.067C-15.6045 143.662 -15.0887 142.115 -14.6098 140.604C-14.1677 139.094 -13.6519 137.694 -13.4677 137.473C-13.3203 137.288 -13.1729 136.736 -13.1729 136.294C-13.1729 135.815 -12.8413 134.783 -12.4361 133.973C-12.0308 133.162 -11.6992 132.204 -11.6992 131.836C-11.6992 131.43 -11.0361 129.772 -10.2255 128.115C-9.41502 126.494 -8.75187 124.836 -8.75187 124.467C-8.75187 123.878 -8.19923 122.662 -7.02028 120.525C-6.79923 120.12 -6.13607 118.757 -5.58344 117.467C-5.03081 116.215 -4.44134 115.183 -4.29397 115.183C-4.1466 115.183 -2.0466 116.178 0.348137 117.394C2.74287 118.609 5.87445 120.083 7.27445 120.673C10.6271 122.072 18.5113 124.394 21.0902 124.762C27.5376 125.646 31.7008 126.383 32.3639 126.751C32.806 126.973 34.4271 128.63 35.9745 130.473C39.2903 134.378 45.3324 139.978 48.7955 142.336C50.8218 143.699 51.4113 144.362 52.0745 145.909C53.0692 148.23 53.5113 152.467 53.1429 155.673C52.7008 159.173 52.8113 164.257 53.3639 166.43C54.5797 171.036 58.1166 175.567 63.9376 179.915C68.8008 183.525 72.006 185.367 76.0218 186.915C81.4008 188.904 84.4218 189.383 92.0113 189.383C97.0218 189.383 102.474 188.646 104.059 187.762C104.427 187.541 105.09 187.394 105.532 187.394C106.453 187.394 108.959 186.583 109.364 186.178C109.511 186.03 110.064 185.92 110.58 185.92C111.096 185.92 113.159 185.515 115.222 185.036C119.974 183.894 123.474 183.267 125.243 183.267C126.017 183.267 127.159 183.12 127.785 182.936C128.411 182.751 129.406 182.494 129.996 182.42C132.132 182.088 133.274 181.794 134.011 181.499C134.417 181.315 135.743 180.983 136.959 180.725C138.174 180.504 139.501 180.062 139.906 179.804C140.311 179.509 140.901 179.288 141.269 179.288C141.638 179.288 142.559 178.957 143.296 178.551C144.069 178.146 144.88 177.815 145.101 177.815C145.727 177.815 147.864 176.673 149.301 175.604C150.001 175.088 151.585 174.094 152.801 173.394C154.938 172.251 158.401 169.599 158.953 168.751C159.101 168.53 159.911 167.867 160.796 167.278C161.68 166.688 162.785 165.767 163.264 165.215C163.743 164.625 164.332 164.183 164.553 164.183C164.774 164.183 166.027 163.188 167.353 161.972C168.643 160.757 169.822 159.762 169.932 159.762C170.669 159.762 179.88 149.962 179.88 149.188C179.88 148.967 180.138 148.599 180.432 148.341C180.727 148.083 180.985 147.567 180.985 147.199C180.985 146.794 181.132 146.499 181.28 146.499C181.464 146.499 182.053 145.467 182.643 144.178C183.196 142.925 184.043 141.046 184.522 139.978C185.001 138.946 185.406 137.878 185.406 137.657C185.406 137.399 185.811 136.441 186.327 135.483C186.806 134.562 187.727 132.72 188.317 131.394C188.943 130.067 189.901 128.446 190.453 127.746C192.517 125.167 195.796 122.183 196.459 122.183C196.68 122.183 196.827 122.036 196.827 121.851C196.827 121.667 197.343 121.336 197.969 121.115C198.632 120.894 199.332 120.488 199.553 120.194C200.474 119.015 211.343 115.588 214.217 115.551C214.769 115.551 215.764 115.33 216.427 115.036C217.09 114.741 219.485 113.93 221.696 113.194C226.78 111.572 230.685 110.173 230.98 109.878C231.127 109.767 231.569 109.657 232.011 109.657C232.417 109.657 232.932 109.509 233.153 109.362C233.338 109.178 234.222 108.736 235.143 108.404C236.064 108.036 237.317 107.557 237.906 107.299C238.532 107.004 239.748 106.488 240.669 106.12C241.59 105.751 242.548 105.236 242.806 104.978C243.064 104.72 243.58 104.499 243.911 104.499C244.243 104.499 244.943 104.167 245.459 103.762C245.974 103.357 246.49 103.025 246.674 103.025C246.822 103.025 247.817 102.141 248.885 101.072C250.727 99.2672 251.464 98.0514 253.011 94.3672C253.343 93.5567 253.859 92.3041 254.19 91.6041C255.296 89.0251 256.806 83.1672 257.469 78.8936L257.69 77.4567L260.269 81.4725C261.706 83.683 264.248 88.2146 265.906 91.5672ZM-13.9466 164.072C-10.2255 165.03 -2.63607 167.757 -0.278179 168.972C2.04287 170.151 5.13761 174.83 7.45866 180.578C8.74814 183.894 9.1534 184.815 9.74287 186.178C10.1113 187.025 10.406 187.872 10.406 188.057C10.406 188.241 11.1429 189.862 12.0639 191.667C12.985 193.472 13.7218 195.241 13.7218 195.572C13.7218 195.904 13.8692 196.272 14.0534 196.383C14.3481 196.567 14.7166 197.93 15.0113 199.736C15.085 200.141 15.3429 201.283 15.5639 202.315C15.8587 203.567 15.8955 206.294 15.7113 210.788C15.4166 218.525 15.4534 220.773 15.9324 222.025C16.1166 222.541 16.3376 223.72 16.485 224.678C16.5955 225.636 16.8534 226.52 17.0376 226.63C17.2218 226.741 17.7008 227.551 18.106 228.473C18.9166 230.278 23.485 235.215 26.8376 237.904C30.1902 240.594 35.1271 245.494 36.3429 247.446C38.2955 250.541 39.6218 257.541 38.7745 260.194C38.3324 261.446 35.1639 264.025 32.6218 265.204C29.0113 266.825 20.0587 273.936 18.1429 276.736C17.6639 277.473 14.6429 280.973 13.4639 282.262C13.206 282.557 12.985 282.925 12.985 283.109C12.985 283.294 12.7271 283.699 12.3955 283.957C12.0639 284.215 11.6587 284.841 11.4745 285.357L11.106 286.241L9.8534 285.025C9.1534 284.325 8.56393 283.588 8.56393 283.367C8.56393 283.146 7.23761 281.23 5.61656 279.13C3.99551 277.03 2.66919 275.188 2.66919 275.041C2.66919 274.894 2.26393 274.304 1.78498 273.715C0.863926 272.609 -0.0571251 271.099 -2.00976 267.341C-2.70976 266.015 -3.52028 264.688 -3.81502 264.357C-4.10976 264.062 -4.33081 263.546 -4.33081 263.251C-4.33081 262.957 -4.73607 262.146 -5.25186 261.446C-5.73081 260.783 -6.57818 259.051 -7.13081 257.615C-7.68344 256.178 -8.3466 254.594 -8.6045 254.078C-9.7466 251.867 -11.294 248.22 -11.7361 246.709C-11.994 245.788 -12.4729 244.536 -12.8045 243.946C-13.1361 243.32 -13.6887 241.846 -14.0571 240.63C-14.4255 239.415 -14.9413 237.83 -15.1992 237.13C-15.7519 235.694 -16.9308 231.751 -17.7413 228.546C-18.0361 227.404 -18.4045 226.262 -18.515 226.078C-18.8466 225.562 -19.4361 222.246 -19.6571 219.888C-19.7308 218.783 -19.9887 217.604 -20.1729 217.236C-20.3571 216.867 -20.615 215.43 -20.7255 214.03C-20.9098 211.415 -21.0203 210.494 -21.4255 208.394C-21.5729 207.694 -21.7571 206.036 -21.8308 204.709C-21.9045 203.383 -22.0887 200.583 -22.2361 198.446C-22.494 194.578 -22.494 182.236 -22.2361 179.472C-22.1624 178.662 -22.015 176.673 -21.8677 175.051C-21.7203 173.43 -21.4624 171.441 -21.2413 170.63C-20.9098 169.157 -20.6519 166.725 -20.5782 164.072L-20.5413 162.709L-18.9571 162.93C-18.1098 163.041 -15.8624 163.557 -13.9466 164.072ZM211.859 221.878L215.985 223.167L217.127 225.451C220.517 232.157 225.085 236.946 233.338 242.473C236.469 244.573 241.848 247.336 244.501 248.183C247.043 248.994 253.601 248.662 255.296 247.594C255.738 247.299 256.843 247.078 257.727 247.078H259.385L258.943 248.367C258.685 249.067 258.206 249.951 257.874 250.32C257.543 250.688 257.248 251.167 257.248 251.388C257.248 251.609 256.659 252.641 255.959 253.673C255.259 254.704 254.669 255.772 254.669 256.104C254.669 256.399 254.485 256.657 254.301 256.657C254.08 256.657 253.748 257.025 253.564 257.467C253.196 258.241 252.311 259.678 250.432 262.404C250.064 262.994 249.253 264.025 248.701 264.688C248.148 265.351 247.669 266.088 247.669 266.346C247.669 266.641 247.19 267.304 246.564 267.894C245.974 268.483 245.459 269.109 245.459 269.33C245.459 269.515 244.648 270.62 243.617 271.799C242.622 272.978 241.774 274.046 241.774 274.23C241.774 274.525 239.048 277.694 237.39 279.315C236.948 279.757 236.617 280.199 236.617 280.346C236.617 280.494 236.064 281.157 235.438 281.857C234.774 282.52 233.559 283.883 232.748 284.804C231.938 285.762 230.832 286.757 230.28 287.051C229.69 287.383 229.248 287.825 229.248 288.083C229.248 288.304 227.996 289.667 226.448 291.104C224.938 292.504 222.764 294.604 221.585 295.709C220.406 296.815 218.601 298.362 217.532 299.136C216.501 299.909 215.617 300.72 215.617 300.904C215.617 301.088 215.432 301.236 215.211 301.236C214.953 301.236 214.401 301.604 213.922 302.046C212.301 303.594 211.527 304.22 210.643 304.625C210.127 304.846 209.722 305.178 209.722 305.362C209.722 305.841 207.806 307.462 207.253 307.499C206.996 307.499 206.774 307.646 206.774 307.83C206.774 308.015 206.48 308.272 206.074 308.42C205.706 308.53 204.896 309.046 204.343 309.599C203.348 310.52 202.169 311.294 198.08 313.762C197.011 314.351 195.98 315.125 195.722 315.42C195.28 315.936 194.248 316.194 194.248 315.788C194.248 315.715 194.69 314.499 195.206 313.136C196.274 310.409 196.496 306.32 195.722 303.815C195.501 303.115 195.206 302.046 195.132 301.457C195.022 300.904 194.617 299.909 194.211 299.246C193.843 298.62 193.511 297.883 193.511 297.588C193.511 297.036 191.632 292.688 187.543 283.92C186.953 282.594 186.106 280.788 185.701 279.867C185.296 278.946 184.817 277.915 184.632 277.583C184.448 277.215 184.301 276.625 184.301 276.22C184.301 275.851 184.043 274.93 183.748 274.194C183.122 272.72 183.085 271.688 183.38 266.604C183.49 264.688 183.564 262.846 183.601 262.551C183.638 261.962 184.374 259.162 185.296 256.215C185.59 255.257 185.996 254.373 186.18 254.262C186.364 254.115 186.511 253.783 186.511 253.488C186.511 253.157 186.99 252.236 187.543 251.388C188.096 250.541 188.759 249.362 189.017 248.809C189.238 248.257 189.717 247.704 190.011 247.594C190.306 247.446 190.564 247.225 190.564 247.041C190.564 246.341 194.432 241.662 196.532 239.857C197.49 239.009 200.253 235.657 201.838 233.409C204.306 229.909 205.043 226.373 204.232 222.136C204.048 221.288 204.011 220.515 204.085 220.441C204.453 220.036 208.064 220.736 211.859 221.878Z" fill="#FFC34E"/>
</svg>
