<svg width="254" height="62" viewBox="0 0 254 62" fill="none" xmlns="http://www.w3.org/2000/svg">
<path d="M0 0H214C236.091 0 254 17.9086 254 40V62H40C17.9086 62 0 44.0914 0 22V0Z" fill="#FFC34E"/>
<path d="M58.375 37H56.1953L51.5 31.2031V37H49.625V25.5781H51.5V31.1094L56.1094 25.5781H58.1562L53.5469 31.0938L58.375 37ZM58.3984 28.3516H60.3984L62.1719 33.2891C62.25 33.513 62.3203 33.7344 62.3828 33.9531C62.4505 34.1667 62.5078 34.3776 62.5547 34.5859C62.6068 34.7943 62.6484 35.0026 62.6797 35.2109H62.7266C62.7786 34.9401 62.8516 34.638 62.9453 34.3047C63.0443 33.9661 63.1536 33.6276 63.2734 33.2891L64.9766 28.3516H66.9531L63.2422 38.1875C63.0286 38.75 62.7656 39.2292 62.4531 39.625C62.1458 40.026 61.7812 40.3281 61.3594 40.5312C60.9375 40.7396 60.4557 40.8438 59.9141 40.8438C59.6536 40.8438 59.4271 40.8281 59.2344 40.7969C59.0417 40.7708 58.8776 40.7422 58.7422 40.7109V39.2422C58.8516 39.2682 58.9896 39.2917 59.1562 39.3125C59.3229 39.3333 59.4948 39.3438 59.6719 39.3438C60 39.3438 60.2839 39.2786 60.5234 39.1484C60.763 39.0182 60.9661 38.8333 61.1328 38.5938C61.2995 38.3594 61.4375 38.0911 61.5469 37.7891L61.8516 36.9766L58.3984 28.3516ZM75.8203 28.3516V37H73.9688V29.8047H70.1094V37H68.2656V28.3516H75.8203ZM80.2188 28.3516V32.7656C80.2188 32.9062 80.2135 33.0859 80.2031 33.3047C80.1979 33.5182 80.1875 33.7422 80.1719 33.9766C80.1562 34.2057 80.1406 34.4167 80.125 34.6094C80.1094 34.8021 80.0964 34.9453 80.0859 35.0391L84.4375 28.3516H86.6719V37H84.9141V32.6328C84.9141 32.4036 84.9193 32.138 84.9297 31.8359C84.9453 31.5339 84.9609 31.2422 84.9766 30.9609C84.9974 30.6797 85.0104 30.4661 85.0156 30.3203L80.6797 37H78.4531V28.3516H80.2188ZM95.8438 29.7969H93V37H91.1719V29.7969H88.3438V28.3516H95.8438V29.7969ZM99.3594 31.8047H101.508C102.32 31.8047 102.992 31.8984 103.523 32.0859C104.06 32.2682 104.461 32.5443 104.727 32.9141C104.992 33.2839 105.125 33.7474 105.125 34.3047C105.125 34.8516 105 35.3281 104.75 35.7344C104.5 36.1354 104.109 36.4479 103.578 36.6719C103.052 36.8906 102.365 37 101.516 37H97.5156V28.3516H99.3594V31.8047ZM103.281 34.3516C103.281 33.9193 103.12 33.6146 102.797 33.4375C102.474 33.2552 102.013 33.1641 101.414 33.1641H99.3594V35.6484H101.43C101.977 35.6484 102.422 35.5495 102.766 35.3516C103.109 35.1484 103.281 34.8151 103.281 34.3516ZM114.797 37.1562C113.979 37.1562 113.271 36.9974 112.672 36.6797C112.073 36.362 111.612 35.875 111.289 35.2188C110.966 34.5625 110.805 33.7292 110.805 32.7188C110.805 31.6667 110.982 30.8073 111.336 30.1406C111.69 29.474 112.18 28.9818 112.805 28.6641C113.435 28.3464 114.156 28.1875 114.969 28.1875C115.484 28.1875 115.951 28.2396 116.367 28.3438C116.789 28.4427 117.146 28.5651 117.438 28.7109L116.891 30.1797C116.573 30.0495 116.247 29.9401 115.914 29.8516C115.581 29.763 115.26 29.7188 114.953 29.7188C114.448 29.7188 114.026 29.8307 113.688 30.0547C113.354 30.2786 113.104 30.612 112.938 31.0547C112.776 31.4974 112.695 32.0469 112.695 32.7031C112.695 33.3385 112.779 33.875 112.945 34.3125C113.112 34.7448 113.359 35.0729 113.688 35.2969C114.016 35.5156 114.419 35.625 114.898 35.625C115.372 35.625 115.797 35.5677 116.172 35.4531C116.547 35.3385 116.901 35.1901 117.234 35.0078V36.6016C116.906 36.7891 116.555 36.9271 116.18 37.0156C115.805 37.1094 115.344 37.1562 114.797 37.1562ZM122.711 28.1875C123.482 28.1875 124.143 28.3464 124.695 28.6641C125.247 28.9818 125.672 29.4323 125.969 30.0156C126.266 30.599 126.414 31.2969 126.414 32.1094V33.0938H120.641C120.661 33.9323 120.885 34.5781 121.312 35.0312C121.745 35.4844 122.349 35.7109 123.125 35.7109C123.677 35.7109 124.172 35.6589 124.609 35.5547C125.052 35.4453 125.508 35.2865 125.977 35.0781V36.5703C125.544 36.7734 125.104 36.9219 124.656 37.0156C124.208 37.1094 123.672 37.1562 123.047 37.1562C122.198 37.1562 121.451 36.9922 120.805 36.6641C120.164 36.3307 119.661 35.8359 119.297 35.1797C118.938 34.5234 118.758 33.7083 118.758 32.7344C118.758 31.7656 118.922 30.9427 119.25 30.2656C119.578 29.5885 120.039 29.0729 120.633 28.7188C121.227 28.3646 121.919 28.1875 122.711 28.1875ZM122.711 29.5703C122.133 29.5703 121.664 29.7578 121.305 30.1328C120.951 30.5078 120.742 31.0573 120.68 31.7812H124.617C124.612 31.349 124.539 30.9661 124.398 30.6328C124.263 30.2995 124.055 30.0391 123.773 29.8516C123.497 29.6641 123.143 29.5703 122.711 29.5703ZM132.922 28.1875C133.948 28.1875 134.771 28.5625 135.391 29.3125C136.016 30.0625 136.328 31.1771 136.328 32.6562C136.328 33.6354 136.182 34.4609 135.891 35.1328C135.604 35.7995 135.201 36.3047 134.68 36.6484C134.164 36.987 133.562 37.1562 132.875 37.1562C132.438 37.1562 132.057 37.099 131.734 36.9844C131.411 36.8698 131.135 36.7214 130.906 36.5391C130.677 36.3516 130.484 36.1484 130.328 35.9297H130.219C130.245 36.138 130.268 36.3698 130.289 36.625C130.315 36.875 130.328 37.1042 130.328 37.3125V40.8359H128.484V28.3516H129.984L130.242 29.5469H130.328C130.49 29.3021 130.685 29.0755 130.914 28.8672C131.148 28.6589 131.43 28.4948 131.758 28.375C132.091 28.25 132.479 28.1875 132.922 28.1875ZM132.43 29.6875C131.924 29.6875 131.518 29.7891 131.211 29.9922C130.909 30.1901 130.688 30.4896 130.547 30.8906C130.411 31.2917 130.339 31.7943 130.328 32.3984V32.6562C130.328 33.2969 130.393 33.8411 130.523 34.2891C130.659 34.7318 130.88 35.0703 131.188 35.3047C131.5 35.5339 131.922 35.6484 132.453 35.6484C132.901 35.6484 133.271 35.526 133.562 35.2812C133.859 35.0365 134.081 34.6875 134.227 34.2344C134.372 33.7812 134.445 33.2474 134.445 32.6328C134.445 31.7005 134.279 30.9766 133.945 30.4609C133.617 29.9453 133.112 29.6875 132.43 29.6875ZM144.984 29.7969H142.141V37H140.312V29.7969H137.484V28.3516H144.984V29.7969ZM148.422 28.3516V32.7656C148.422 32.9062 148.417 33.0859 148.406 33.3047C148.401 33.5182 148.391 33.7422 148.375 33.9766C148.359 34.2057 148.344 34.4167 148.328 34.6094C148.312 34.8021 148.299 34.9453 148.289 35.0391L152.641 28.3516H154.875V37H153.117V32.6328C153.117 32.4036 153.122 32.138 153.133 31.8359C153.148 31.5339 153.164 31.2422 153.18 30.9609C153.201 30.6797 153.214 30.4661 153.219 30.3203L148.883 37H146.656V28.3516H148.422ZM163.195 24.8438V28.2656C164.122 28.3438 164.917 28.5729 165.578 28.9531C166.24 29.3281 166.747 29.8307 167.102 30.4609C167.456 31.0911 167.633 31.8281 167.633 32.6719C167.633 33.5052 167.461 34.2396 167.117 34.875C166.779 35.5104 166.279 36.0182 165.617 36.3984C164.961 36.7786 164.154 37.0104 163.195 37.0938V40.8438H161.453V37.0938C160.526 37.0156 159.732 36.7865 159.07 36.4062C158.409 36.026 157.898 35.5182 157.539 34.8828C157.18 34.2474 157 33.5104 157 32.6719C157 31.8229 157.169 31.0807 157.508 30.4453C157.846 29.8099 158.346 29.3047 159.008 28.9297C159.669 28.5547 160.492 28.3333 161.477 28.2656V24.8438H163.195ZM161.477 29.6953C160.914 29.7578 160.44 29.9193 160.055 30.1797C159.674 30.4349 159.388 30.7734 159.195 31.1953C159.003 31.6172 158.906 32.1094 158.906 32.6719C158.906 33.2396 159 33.737 159.188 34.1641C159.38 34.5859 159.667 34.9245 160.047 35.1797C160.432 35.4349 160.909 35.5938 161.477 35.6562V29.6953ZM163.195 29.7188V35.6562C163.758 35.5938 164.227 35.4349 164.602 35.1797C164.982 34.9193 165.266 34.5781 165.453 34.1562C165.646 33.7292 165.742 33.2344 165.742 32.6719C165.742 31.8281 165.523 31.1484 165.086 30.6328C164.654 30.1172 164.023 29.8125 163.195 29.7188ZM171.516 28.3516V32.7656C171.516 32.9062 171.51 33.0859 171.5 33.3047C171.495 33.5182 171.484 33.7422 171.469 33.9766C171.453 34.2057 171.438 34.4167 171.422 34.6094C171.406 34.8021 171.393 34.9453 171.383 35.0391L175.734 28.3516H177.969V37H176.211V32.6328C176.211 32.4036 176.216 32.138 176.227 31.8359C176.242 31.5339 176.258 31.2422 176.273 30.9609C176.294 30.6797 176.307 30.4661 176.312 30.3203L171.977 37H169.75V28.3516H171.516ZM185.969 28.3516H187.992L184.414 32.5078L188.297 37H186.18L182.453 32.6094V37H180.609V28.3516H182.453V32.5469L185.969 28.3516ZM193.094 28.1875C194.188 28.1875 195.013 28.4297 195.57 28.9141C196.133 29.3984 196.414 30.1536 196.414 31.1797V37H195.109L194.758 35.7734H194.695C194.451 36.0859 194.198 36.3438 193.938 36.5469C193.677 36.75 193.375 36.901 193.031 37C192.693 37.1042 192.279 37.1562 191.789 37.1562C191.273 37.1562 190.812 37.0625 190.406 36.875C190 36.6823 189.68 36.3906 189.445 36C189.211 35.6094 189.094 35.1146 189.094 34.5156C189.094 33.625 189.424 32.9557 190.086 32.5078C190.753 32.0599 191.758 31.8125 193.102 31.7656L194.602 31.7109V31.2578C194.602 30.6589 194.461 30.2318 194.18 29.9766C193.904 29.7214 193.513 29.5938 193.008 29.5938C192.576 29.5938 192.156 29.6562 191.75 29.7812C191.344 29.9062 190.948 30.0599 190.562 30.2422L189.969 28.9453C190.391 28.7214 190.87 28.5391 191.406 28.3984C191.948 28.2578 192.51 28.1875 193.094 28.1875ZM194.594 32.8672L193.477 32.9062C192.56 32.9375 191.917 33.0938 191.547 33.375C191.177 33.6562 190.992 34.0417 190.992 34.5312C190.992 34.9583 191.12 35.2708 191.375 35.4688C191.63 35.6615 191.966 35.7578 192.383 35.7578C193.018 35.7578 193.544 35.5781 193.961 35.2188C194.383 34.8542 194.594 34.3203 194.594 33.6172V32.8672ZM205.516 29.7969H202.672V37H200.844V29.7969H198.016V28.3516H205.516V29.7969Z" fill="#003229"/>
</svg>
